# xmcd CD database file
#
# Track frame offsets:
#	187
#	25492
#	40565
#	63967
#	83250
#	100887
#	123485
#	141532
#	156495
#	179970
#
# Disc length: 2697 seconds
#
# Revision: 0
# Processed by: cddbd v1.5.1PL2 Copyright (c) Steve Scherf et al.
# Submitted via: CDex 1.51
#
DISCID=890a870a
DTITLE=THE ROCK BAND - アナーキー
DYEAR=1986
DGENRE=Punk Rock
TTITLE0=ボーダー
TTITLE1=No ジャングル
TTITLE2=Harder They Come
TTITLE3=Hey! Rock Band
TTITLE4=Tokyo ・・・・ 夢
TTITLE5=フル フォー ユー
TTITLE6=夜明けまで離さない
TTITLE7=Suzie Q
TTITLE8=Our History Again
TTITLE9=さびしい夜
EXTD=YEAR: 1986
EXTT0=
EXTT1=
EXTT2=
EXTT3=
EXTT4=
EXTT5=
EXTT6=
EXTT7=
EXTT8=
EXTT9=
PLAYORDER=
